<?xml version="1.0" encoding="utf-8"?>
<!-- Generator: Adobe Illustrator 24.2.1, SVG Export Plug-In . SVG Version: 6.00 Build 0)  -->
<svg version="1.1" id="Layer_1" xmlns="http://www.w3.org/2000/svg" xmlns:xlink="http://www.w3.org/1999/xlink" x="0px" y="0px"
	 viewBox="0 0 243.1 67.5" style="enable-background:new 0 0 243.1 67.5;" xml:space="preserve">
<style type="text/css">
	.st0{fill:#C00D0D;}
</style>
<g>
	<path class="st0" d="M33.1,22.7c2.9,0,5.6,1.3,7.5,3.3c1.9,2,3.1,4.9,3.1,8l0,0c0,3.1-1.2,5.9-3.1,8c-1.9,2.1-4.6,3.3-7.5,3.3H22.6
		V22.7H33.1z M33.1,26.5h-7v15h7c1.9,0,3.7-0.8,4.9-2.2c1.3-1.4,2.1-3.2,2.1-5.3l0,0c0-2.1-0.8-4-2.1-5.3
		C36.8,27.3,35.1,26.5,33.1,26.5z"/>
	<g>
		<polygon class="st0" points="82.7,22.7 82.7,26.4 76.2,26.4 76.2,45.4 72,45.4 72,26.4 65.5,26.4 65.5,22.7 		"/>
		<polygon class="st0" points="172.5,22.7 172.5,26.4 166,26.4 166,45.4 161.8,45.4 161.8,26.4 155.3,26.4 155.3,22.7 		"/>
		<rect x="174.8" y="22.7" class="st0" width="4.2" height="22.7"/>
		<path class="st0" d="M199.6,44.4c-0.8,0.3-1.7,0.6-2.6,0.7c-0.9,0.2-1.9,0.3-2.9,0.3l0,0c-0.2,0-0.3,0-0.5,0c-0.2,0-0.4,0-0.5,0
			c-0.6,0-1.2,0-1.8-0.1c-0.5-0.1-1.1-0.1-1.6-0.3h0c-1-0.2-1.9-0.6-2.8-1.1c-0.9-0.5-1.7-1.2-2.4-1.9c-1-1.1-1.8-2.3-2.3-3.7
			c-0.5-1.3-0.8-2.8-0.8-4.3l0,0c0-1.5,0.3-3,0.8-4.3c0.5-1.4,1.3-2.6,2.3-3.7c0.6-0.6,1.3-1.2,2-1.7c0.7-0.5,1.5-0.9,2.3-1.1h0
			c0.6-0.2,1.3-0.4,2-0.5c0.8-0.1,1.6-0.2,2.3-0.2v0h0.3h0c1.2,0,2.3,0.1,3.3,0.3c1,0.2,2,0.4,3,0.8l0.1,0v0.1v3.7v0.2l-0.2-0.1
			c-0.9-0.4-1.9-0.7-3-0.9c-1-0.2-2.1-0.3-3.2-0.3l0,0l-0.2,0l-0.3,0c-0.9,0-1.9,0.3-2.9,0.7c-1,0.4-1.9,0.9-2.5,1.5
			c-0.1,0.1-0.1,0.1-0.2,0.2l0,0c0,0.1-0.1,0.1-0.2,0.2c-0.6,0.7-1.1,1.5-1.4,2.3c-0.3,0.8-0.5,1.8-0.5,2.7l0,0c0,1,0.2,1.9,0.5,2.8
			c0.4,0.9,0.9,1.7,1.5,2.4c0.2,0.2,0.4,0.4,0.6,0.5c0.2,0.2,0.4,0.3,0.6,0.5l0,0c0.5,0.4,1.4,0.8,2.4,1c0.8,0.2,1.7,0.4,2.6,0.3h0
			h0.2h0l0.3,0c1,0,2-0.1,2.9-0.3c0.9-0.2,1.9-0.5,2.7-0.9l0.2-0.1v0.2v3.7v0.1L199.6,44.4z"/>
		<polygon class="st0" points="107.3,45.4 107.3,22.7 111.6,22.7 119.3,39.9 126.9,22.7 131.1,22.7 131.1,45.4 127.2,45.4 
			127.2,29.6 121,45.4 117.4,45.4 111.2,29.6 111.2,45.4 		"/>
		<path class="st0" d="M213.1,32.1h-3.9c-1.8,0-2.8-0.8-2.8-2.5c0-2.2,1.9-3.3,5.7-3.3c2,0,3.9,0.3,5.8,0.8l1.4-3.3
			c-2.3-0.7-4.7-1.1-7.2-1.1c-6.6,0-9.9,2.3-9.9,7c0,4.2,2.3,6.3,7,6.3h3.9c2.1,0,3.2,0.8,3.2,2.5c0,2.3-1.7,3.5-5.2,3.5
			c-2.9,0-5.4-0.4-7.7-1.3v3.8c2.3,0.7,4.8,1.1,7.7,1.1c6.3,0,9.4-2.4,9.4-7.1C220.6,34.2,218.1,32.1,213.1,32.1z"/>
		<polygon class="st0" points="57.4,22.7 53,22.7 43.4,45.4 47.7,45.4 55.1,27.1 58.9,35.6 54.1,35.6 52.7,39.2 60,39.2 62.8,45.4 
			67.3,45.4 		"/>
		<polygon class="st0" points="94.9,22.7 90.5,22.7 80.9,45.3 85.2,45.3 92.6,27 96.4,35.5 91.6,35.5 90.2,39.2 97.5,39.2 
			100.3,45.3 104.8,45.3 		"/>
		<polygon class="st0" points="147.4,22.7 143,22.7 133.4,45.3 137.7,45.3 145.1,27 148.9,35.5 144.1,35.5 142.7,39.2 150,39.2 
			152.8,45.3 157.3,45.3 		"/>
	</g>
</g>
</svg>
